<?xml version="1.0" encoding="UTF-8" standalone="no"?>
<svg xmlns="http://www.w3.org/2000/svg" viewBox="0 0 800 600" width="800" height="600">
  <!-- Background -->
  <rect x="0" y="0" width="800" height="600" fill="#f8fafc" />
  
  <!-- Hospital Building -->
  <rect x="500" y="200" width="250" height="300" fill="#e2e8f0" rx="10" ry="10" />
  <rect x="620" y="250" width="60" height="100" fill="#2563eb" rx="5" ry="5" />
  <rect x="530" y="250" width="60" height="60" fill="#3b82f6" rx="5" ry="5" />
  <rect x="530" y="330" width="60" height="60" fill="#3b82f6" rx="5" ry="5" />
  <rect x="700" y="250" width="30" height="60" fill="#3b82f6" rx="5" ry="5" />
  <rect x="700" y="330" width="30" height="60" fill="#3b82f6" rx="5" ry="5" />
  <rect x="530" y="410" width="60" height="90" fill="#3b82f6" rx="5" ry="5" />
  <rect x="620" y="410" width="110" height="60" fill="#3b82f6" rx="5" ry="5" />
  
  <!-- Ground -->
  <rect x="0" y="500" width="800" height="100" fill="#e2e8f0" />
  
  <!-- Doctor -->
  <circle cx="250" cy="300" r="80" fill="#e2e8f0" /> <!-- Head -->
  <rect x="230" y="380" width="40" height="120" fill="#2563eb" rx="5" ry="5" /> <!-- Body -->
  <rect x="190" y="380" width="40" height="80" fill="#2563eb" transform="rotate(20, 190, 380)" /> <!-- Left Arm -->
  <rect x="270" y="380" width="40" height="80" fill="#2563eb" transform="rotate(-20, 270, 380)" /> <!-- Right Arm -->
  <rect x="230" y="500" width="20" height="80" fill="#1e40af" /> <!-- Left Leg -->
  <rect x="250" y="500" width="20" height="80" fill="#1e40af" /> <!-- Right Leg -->
  
  <!-- Stethoscope -->
  <path d="M270,430 C350,400 370,350 340,320" stroke="#60a5fa" stroke-width="8" fill="none" />
  <circle cx="340" cy="320" r="15" fill="#60a5fa" />
  
  <!-- Medical Clipboard -->
  <rect x="150" y="420" width="60" height="80" fill="#f8fafc" stroke="#334155" stroke-width="2" />
  <rect x="160" y="440" width="40" height="5" fill="#94a3b8" />
  <rect x="160" y="455" width="40" height="5" fill="#94a3b8" />
  <rect x="160" y="470" width="40" height="5" fill="#94a3b8" />
  <rect x="160" y="485" width="20" height="5" fill="#94a3b8" />
  
  <!-- Medical Crosses -->
  <g fill="#2563eb">
    <rect x="50" y="150" width="20" height="60" rx="5" ry="5" />
    <rect x="30" y="170" width="60" height="20" rx="5" ry="5" />
    
    <rect x="400" y="100" width="15" height="45" rx="5" ry="5" />
    <rect x="385" y="115" width="45" height="15" rx="5" ry="5" />
    
    <rect x="700" y="150" width="10" height="30" rx="3" ry="3" />
    <rect x="690" y="160" width="30" height="10" rx="3" ry="3" />
  </g>
  
  <!-- Heartbeat Line -->
  <path d="M100,250 L150,250 L170,220 L190,280 L210,200 L230,300 L250,230 L270,250 L320,250" 
        stroke="#2563eb" stroke-width="6" fill="none" stroke-linecap="round" />
  
  <!-- Medical Plus Signs -->
  <g fill="#60a5fa">
    <circle cx="80" cy="350" r="15" />
    <rect x="75" y="335" width="10" height="30" rx="2" ry="2" />
    <rect x="65" y="345" width="30" height="10" rx="2" ry="2" />
    
    <circle cx="450" cy="200" r="15" />
    <rect x="445" y="185" width="10" height="30" rx="2" ry="2" />
    <rect x="435" y="195" width="30" height="10" rx="2" ry="2" />
  </g>
  
  <!-- Floating Pills -->
  <ellipse cx="370" cy="400" rx="25" ry="15" fill="#f8fafc" stroke="#60a5fa" stroke-width="3" />
  <line x1="370" y1="385" x2="370" y2="415" stroke="#60a5fa" stroke-width="3" />
  
  <ellipse cx="420" cy="350" rx="25" ry="15" fill="#f8fafc" stroke="#60a5fa" stroke-width="3" transform="rotate(45, 420, 350)" />
  <line x1="410" y1="340" x2="430" y2="360" stroke="#60a5fa" stroke-width="3" />
</svg>