<?xml version="1.0" encoding="UTF-8" standalone="no"?>
<svg xmlns="http://www.w3.org/2000/svg" viewBox="0 0 100 100" width="100" height="100">
  <!-- Main Circle -->
  <circle cx="50" cy="50" r="48" fill="#f8fafc" stroke="#2563eb" stroke-width="4" />
  
  <!-- Medical Cross -->
  <g fill="#2563eb">
    <rect x="45" y="25" width="10" height="50" rx="3" ry="3" />
    <rect x="25" y="45" width="50" height="10" rx="3" ry="3" />
  </g>
  
  <!-- Heart Shape -->
  <path d="M50,82 C70,65 85,55 85,40 C85,30 77,25 70,25 C63,25 55,30 50,40 C45,30 37,25 30,25 C23,25 15,30 15,40 C15,55 30,65 50,82 Z" 
        fill="#60a5fa" fill-opacity="0.7" />
  
  <!-- Stethoscope -->
  <path d="M30,60 C40,70 60,70 70,60" stroke="#2563eb" stroke-width="4" fill="none" stroke-linecap="round" />
  <circle cx="25" cy="60" r="5" fill="#2563eb" />
  <circle cx="75" cy="60" r="5" fill="#2563eb" />
  
  <!-- Pulse Line -->
  <path d="M25,50 L35,50 L40,43 L45,57 L50,45 L55,55 L60,50 L75,50" 
        stroke="#2563eb" stroke-width="3" fill="none" stroke-linecap="round" />
</svg>